<?xml version="1.0" ?><svg viewBox="0 0 398.25 399" xmlns="http://www.w3.org/2000/svg"><defs><style>.cls-1{fill:#231f20;}</style></defs><g data-name="Layer 2" id="Layer_2"><g data-name="Layer 1" id="Layer_1-2"><path class="cls-1" d="M397.36,28.41a86,86,0,0,0-6.53-21h0a85.62,85.62,0,0,0-21-6.53,48,48,0,0,0-15-.53A27.24,27.24,0,0,0,344,4,23,23,0,0,0,340,7.15c-1.25,1.17-2.49,2.34-3.71,3.53a283.11,283.11,0,0,0-27.36,30.47c-16.95,21.6-30.64,46.46-45.71,69.95A359.81,359.81,0,0,1,239,144.73a284.35,284.35,0,0,1-28.11,29.73,137.29,137.29,0,0,1-35,22.84,131.72,131.72,0,0,1-21.4,7.51,112.93,112.93,0,0,1-12,2.41,94.62,94.62,0,0,1-9.92,1c-.32,0-.64,0-1,0a62.85,62.85,0,0,0-48.21,18.33L1.85,308a6.32,6.32,0,0,0,0,8.94l.81.8a6.32,6.32,0,0,0,8.77.17l66.48-61.63a4.5,4.5,0,0,1,6.35,0l6,6.05a4.48,4.48,0,0,1,0,6.34L28.68,335.2a6.32,6.32,0,0,0,8.93,8.94l66.49-61.63a4.48,4.48,0,0,1,6.34,0l6,6.05a4.48,4.48,0,0,1,0,6.34L55,361.23a6.46,6.46,0,0,0-.54,8.28,6.32,6.32,0,0,0,9.33.81l66.49-61.62a4.48,4.48,0,0,1,6.34,0l6.05,6a4.5,4.5,0,0,1,0,6.35L81.05,387.57a6.32,6.32,0,0,0,.17,8.77l.8.81a6.32,6.32,0,0,0,8.94,0l81.51-81.51a62.89,62.89,0,0,0,17.95-52.49,10.05,10.05,0,0,1,0-2.26c.18-1.73.4-3.42.64-5.09a112.41,112.41,0,0,1,2.42-12,129.52,129.52,0,0,1,7.51-21.4,137.12,137.12,0,0,1,22.84-35,284.25,284.25,0,0,1,29.72-28.11,360,360,0,0,1,33.64-24.2c23.48-15.06,48.34-28.76,70-45.7A285.15,285.15,0,0,0,387.57,62c1.19-1.22,2.35-2.47,3.52-3.71a22.9,22.9,0,0,0,3.15-4.07,27.45,27.45,0,0,0,3.65-10.82A48.28,48.28,0,0,0,397.36,28.41Z"/></g></g></svg>