<?xml version="1.0" standalone="no"?>
<!DOCTYPE svg PUBLIC "-//W3C//DTD SVG 20010904//EN"
 "http://www.w3.org/TR/2001/REC-SVG-20010904/DTD/svg10.dtd">
<svg version="1.0" xmlns="http://www.w3.org/2000/svg"
 width="1280.000000pt" height="1280.000000pt" viewBox="0 0 1280.000000 1280.000000"
 preserveAspectRatio="xMidYMid meet">
<metadata>
Created by potrace 1.15, written by Peter Selinger 2001-2017
</metadata>
<g transform="translate(0.000000,1280.000000) scale(0.100000,-0.100000)"
fill="#000000" stroke="none">
<path d="M0 12535 l0 -265 6135 0 6135 0 0 -5870 0 -5870 -5600 0 -5600 0 0
5335 0 5335 5065 0 5065 0 0 -4800 0 -4800 -4535 0 -4535 0 0 4265 0 4265
4000 0 4000 0 0 -3730 0 -3730 -3465 0 -3465 0 0 3200 0 3200 2935 0 2935 0 0
-2670 0 -2670 -2400 0 -2400 0 0 2135 0 2135 1865 0 1865 0 0 -1600 0 -1600
-1335 0 -1335 0 0 1065 0 1065 800 0 800 0 0 -530 0 -530 -265 0 -265 0 0 265
0 265 -265 0 -265 0 0 -535 0 -535 800 0 800 0 0 1070 0 1070 -1335 0 -1335 0
0 -1600 0 -1600 1865 0 1865 0 0 2130 0 2130 -2400 0 -2400 0 0 -2665 0 -2665
2935 0 2935 0 0 3200 0 3200 -3465 0 -3465 0 0 -3735 0 -3735 4000 0 4000 0 0
4270 0 4270 -4535 0 -4535 0 0 -4800 0 -4800 5065 0 5065 0 0 5330 0 5330
-5600 0 -5600 0 0 -5865 0 -5865 6135 0 6135 0 0 6400 0 6400 -6400 0 -6400 0
0 -265z"/>
</g>
</svg>
