<?xml version="1.0" standalone="no"?>
<!DOCTYPE svg PUBLIC "-//W3C//DTD SVG 20010904//EN"
 "http://www.w3.org/TR/2001/REC-SVG-20010904/DTD/svg10.dtd">
<svg version="1.0" xmlns="http://www.w3.org/2000/svg"
 width="989.000000pt" height="989.000000pt" viewBox="0 0 989.000000 989.000000"
 preserveAspectRatio="xMidYMid meet">
<metadata>
Created by potrace 1.15, written by Peter Selinger 2001-2017
</metadata>
<g transform="translate(0.000000,1280.000000) scale(0.100000,-0.100000)"
fill="#000000" stroke="none">
<path d="M0 12630 l0 -170 4945 0 4945 0 0 170 0 170 -4945 0 -4945 0 0 -170z"/>
<path d="M0 11940 l0 -170 4945 0 4945 0 0 170 0 170 -4945 0 -4945 0 0 -170z"/>
<path d="M0 11245 l0 -170 4945 0 4945 0 0 170 0 170 -4945 0 -4945 0 0 -170z"/>
<path d="M373 10722 l-373 -2 0 -168 0 -167 4945 0 4945 0 0 167 0 168 -367 0
c-203 0 -2260 1 -4573 3 -2313 1 -4373 1 -4577 -1z"/>
<path d="M0 9860 l0 -170 4945 0 4945 0 0 170 0 170 -4945 0 -4945 0 0 -170z"/>
<path d="M0 9170 l0 -170 4945 0 4945 0 0 170 0 170 -4945 0 -4945 0 0 -170z"/>
<path d="M0 8478 l0 -168 4945 0 4945 0 0 168 0 167 -4945 0 -4945 0 0 -167z"/>
<path d="M0 7785 l0 -170 4945 0 4945 0 0 170 0 170 -4945 0 -4945 0 0 -170z"/>
<path d="M0 7090 l0 -170 4945 0 4945 0 0 170 0 170 -4945 0 -4945 0 0 -170z"/>
<path d="M0 6400 l0 -170 4945 0 4945 0 0 170 0 170 -4945 0 -4945 0 0 -170z"/>
<path d="M0 5710 l0 -170 4945 0 4945 0 0 170 0 170 -4945 0 -4945 0 0 -170z"/>
<path d="M0 5015 l0 -170 4945 0 4945 0 0 170 0 170 -4945 0 -4945 0 0 -170z"/>
<path d="M0 4322 l0 -167 4945 0 4945 0 0 167 0 168 -4945 0 -4945 0 0 -168z"/>
<path d="M0 3630 l0 -170 4945 0 4945 0 0 170 0 170 -4945 0 -4945 0 0 -170z"/>
<path d="M0 2940 l0 -170 4945 0 4945 0 0 170 0 170 -4945 0 -4945 0 0 -170z"/>
<path d="M0 2248 l0 -168 370 0 c204 0 2262 0 4575 0 2313 0 4372 0 4575 0
l370 0 0 168 0 167 -4945 0 -4945 0 0 -167z"/>
<path d="M0 1555 l0 -170 4945 0 4945 0 0 170 0 170 -4945 0 -4945 0 0 -170z"/>
<path d="M0 860 l0 -170 4945 0 4945 0 0 170 0 170 -4945 0 -4945 0 0 -170z"/>
<path d="M0 170 l0 -170 4945 0 4945 0 0 170 0 170 -4945 0 -4945 0 0 -170z"/>
</g>
</svg>
